<svg xmlns="http://www.w3.org/2000/svg" xmlns:xlink="http://www.w3.org/1999/xlink" width="190px" height="128px" viewBox="0 0 190 128"><title>review-mask</title><g id="Archive" stroke="none" stroke-width="1" fill="none" fill-rule="evenodd"><g id="Hero" transform="translate(-1459, -643)" fill="#000000"><path d="M1527.73048,653.434158 L1591,658 L1591,658 L1630.04502,660.69276 C1639.81647,661.366653 1648.28408,653.991632 1648.95797,644.22019 C1648.98598,643.814063 1649,643.407092 1649,643 L1649,643 L1649,643 L1649,771 L1576.77431,771 L1571.39236,771 L1521,771 L1459,771 L1459,771 L1469.11507,770.693483 C1481.92471,770.305312 1492.16939,759.921507 1492.38474,747.107799 L1493.43171,684.813419 C1493.72869,667.142802 1508.29431,653.058691 1525.96493,653.355676 C1526.55405,653.365578 1527.1428,653.391748 1527.73048,653.434158 Z" id="review-mask"></path></g></g></svg>