<svg width="122" height="255" viewBox="0 0 122 255" fill="none" xmlns="http://www.w3.org/2000/svg">
  <g opacity="0.6" stroke="#F1F3FF" stroke-width="3" stroke-linecap="round">
    <path d="M120 2C109 35 91 62 69 89C51 111 34 131 22 154C10 177 5 202 17 222C28 240 55 251 99 253" />
    <path d="M120 35C104 61 84 85 64 109C48 128 34 147 26 166C17 188 19 209 34 226C49 241 73 249 111 251" />
    <path d="M120 68C104 88 88 108 72 128C58 146 47 162 42 179C36 199 42 216 58 229C73 241 94 248 120 251" />
    <path d="M120 84C105 103 89 123 74 142C63 156 54 170 50 184C45 201 49 216 62 228C75 240 94 247 120 250" />
  </g>
</svg>
